<svg version="1.1" id="Layer_1" xmlns="http://www.w3.org/2000/svg" xmlns:xlink="http://www.w3.org/1999/xlink" x="0px"
    y="0px" viewBox="0 0 720 720" style="enable-background:new 0 0 720 720;" xml:space="preserve">
    <style type="text/css">
        .st0 {
            fill: #EEEEF0;
        }

        .st1 {
            fill: #D4D7DC;
        }

        .st2 {
            fill: #B9BFC7;
        }
    </style>
    <g>
        <path class="st0"
            d="M456.8,676.2c-58.6-30.9-71.2-57.2-62.4-81.5c10.1-28,40.8-28.5,65.2-26.7c72.8,5.2,124.7-44.8,50.5-99.7   c-92.5-68.5-94.7-90-81-119.9c15.8-34.5,60.6-49.4,102-40.6c49.1,10.4,68.2-21.3,26.9-45.7c-58.7-34.8-71.4-62.8-56.3-92.9   c11.1-22.2,68.2-16.8,102-13.4s45.3-6.9,50.2-19.9c9.4-25.4-33.9-50.3-33.9-50.3c-25.9-19.6-48.4-40-37.9-67   c2.9-7.5,9.1-13.8,16.6-19h-28.8c0,0,0,0.1,0,0.1c-9.8,22.3-8.2,43.4,22.7,74.7c30.2,30.6,15.1,52.8,14.8,53.4   c-15.4,27.6-55.1,14.9-79.8,12.6c0,0-125.4-20.1-51.9,80.6c17.2,23.5,41.5,42.9,41.5,42.9c13.2,10.7,9.9,27.9-7.6,23.5   c-39-10-51.2-10.4-70.6-5.3c-34,8.8-41.5,48.9-41.7,76.3c-0.2,24.4,25.5,55.7,60.6,81.1c35.1,25.5,65.7,64.9,56.9,87.1   c-10.1,25.4-30.6,28.6-69.5,28.3c-47.2-0.3-77.4,8.7-82.7,31.8c-5.3,23-6.2,53.8,58.2,83.2c53,24.2,46.1,39.3,46.1,39.3   s-0.2,6.6-11.4,10.7h38.5C499.7,709.3,489.2,693.3,456.8,676.2z" />
        <path class="st1"
            d="M499.3,683.1c-24.1-13.9-73.7-38.9-68.8-73.3c4.3-30.5,38.4-26,81.1-29c21.4-1.5,44.2-9.6,53.8-37.3   c11.8-34.1-11.7-66.2-50.5-93.5c-19.6-13.8-73.7-55.5-63.4-85.3c10-29,45-51.7,98.3-36.9c0,0,58.7,19.9,71.9-13   c13.9-34.8-27.8-48-47.6-62.6c-17.8-13.1-44.4-35.2-35.7-60.3c8.7-25.1,25.4-35.6,79.2-26.7c60.8,10.1,73.7-30.8,59.3-57.5   c0,0-8.1-19-43.1-39.3c-32.2-18.7-30-38.5-20.9-56.3c2.3-4.5,7.2-9,14.5-12.7h-28.6c-7.6,5.2-13.7,11.5-16.6,19   c-10.5,27.1,12,47.4,37.9,67c0,0,43.3,25,33.9,50.3c-4.8,13-16.4,23.3-50.2,19.9s-90.9-8.8-102,13.4c-15.1,30.1-2.4,58,56.3,92.9   c41.3,24.5,22.2,56.2-26.9,45.7c-41.3-8.8-86.2,6.1-102,40.6c-13.7,29.9-11.4,51.4,81,119.9c74.2,55,22.3,104.9-50.5,99.7   c-24.4-1.7-55-1.3-65.2,26.7c-8.8,24.3,3.8,50.6,62.4,81.5c32.3,17.1,42.8,33.1,37.1,43.4h27.5C523.4,707,516,692.7,499.3,683.1z" />
        <path class="st1" d="M719.6,0.4v-1.1h-3.4C717.3-0.3,718.5,0,719.6,0.4z" />
        <path class="st2"
            d="M627.3-0.7C619.9,3,615,7.6,612.7,12.1c-9,17.8-11.3,37.6,20.9,56.3c35,20.3,43.1,39.3,43.1,39.3   c14.4,26.7,1.5,67.6-59.3,57.5c-53.8-8.9-70.5,1.6-79.2,26.7c-8.7,25.1,17.9,47.1,35.7,60.3c19.8,14.6,61.5,27.8,47.6,62.6   c-13.2,33-71.9,13-71.9,13c-53.3-14.8-88.3,7.9-98.3,36.9c-10.3,29.7,43.9,71.5,63.4,85.3c38.8,27.3,62.3,59.4,50.5,93.5   c-9.6,27.7-32.4,35.9-53.8,37.3c-42.7,3-76.7-1.5-81.1,29c-4.9,34.4,44.7,59.4,68.8,73.3c16.7,9.6,24.1,23.9,22.2,36.5h198.2V0.4   c-1.2-0.4-2.3-0.7-3.4-1.1H627.3z" />
        <polygon class="st2" points="726.1,1.6 720.3,-0.7 719.7,-0.7  " />
        <polygon class="st2" points="726.1,1.6 726.1,1.6 726.2,1.6  " />
        <polygon class="st2" points="719.6,-0.7 719.7,-0.7 720.3,-0.7 719.6,-0.9  " />
        <polygon class="st2" points="719.7,-0.7 719.6,-0.7 719.6,-0.7  " />
    </g>
</svg>